<?xml version="1.0" standalone="no"?>
<!DOCTYPE svg PUBLIC "-//W3C//DTD SVG 20010904//EN"
 "http://www.w3.org/TR/2001/REC-SVG-20010904/DTD/svg10.dtd">
<svg version="1.0" xmlns="http://www.w3.org/2000/svg"
 width="140.000000pt" height="140.000000pt" viewBox="0 0 140.000000 140.000000"
 preserveAspectRatio="xMidYMid meet">
<metadata>
Created by potrace 1.16, written by Peter Selinger 2001-2019
</metadata>
<g transform="translate(0.000000,140.000000) scale(0.100000,-0.100000)"
fill="#000000" stroke="none">
<path d="M0 700 l0 -700 700 0 700 0 0 700 0 700 -700 0 -700 0 0 -700z m1180
665 c12 -15 -43 -107 -355 -586 -134 -205 -160 -209 -261 -38 -33 54 -74 105
-124 152 l-75 70 48 -7 c68 -8 148 -49 212 -108 53 -48 57 -50 70 -32 17 24
364 465 411 522 37 45 54 51 74 27z m-252 -1010 l3 -50 38 3 c79 8 115 -47
109 -168 -3 -59 -5 -65 -25 -68 -22 -3 -23 0 -23 73 0 91 -10 115 -49 115 -41
0 -50 -17 -53 -105 -3 -74 -5 -80 -25 -83 l-23 -3 0 171 0 171 23 -3 c19 -3
22 -10 25 -53z m-828 -107 c45 -126 38 -123 73 -28 26 69 36 86 55 88 12 2 22
-1 22 -6 0 -26 -84 -224 -97 -229 -8 -3 -21 1 -28 8 -11 12 -95 209 -95 224 0
3 11 5 24 5 20 0 27 -10 46 -62z m356 28 c33 -33 34 -36 34 -120 0 -85 0 -86
-25 -86 -14 0 -25 5 -25 10 0 7 -6 7 -19 0 -47 -25 -120 0 -146 50 -44 86 11
179 109 180 30 0 45 -7 72 -34z m124 22 c0 -9 3 -9 12 0 12 12 60 17 70 6 14
-13 -6 -44 -28 -44 -38 0 -54 -35 -54 -117 0 -71 -1 -73 -25 -73 l-25 0 0 120
0 120 25 0 c14 0 25 -5 25 -12z m248 -15 c24 -25 25 -28 8 -31 -10 -2 -29 1
-41 8 -29 16 -80 9 -80 -10 0 -9 22 -23 59 -35 72 -24 94 -52 77 -94 -23 -55
-122 -71 -166 -26 -29 28 -31 43 -9 52 11 4 23 -2 33 -16 14 -18 25 -22 57
-19 31 2 39 7 39 23 0 15 -12 24 -54 37 -69 22 -81 33 -81 74 0 42 30 64 88
64 33 0 49 -6 70 -27z m458 11 c40 -27 54 -65 54 -149 0 -73 -1 -76 -22 -73
-21 3 -23 10 -28 79 -6 87 -19 109 -65 109 -36 0 -75 -37 -75 -70 0 -10 9 -29
21 -44 22 -28 56 -34 90 -16 16 9 19 7 19 -15 0 -55 -98 -59 -144 -5 -50 60
-46 120 10 169 40 36 98 42 140 15z"/>
<path d="M330 240 c-42 -42 -11 -120 48 -120 40 1 62 22 62 61 0 71 -64 105
-110 59z"/>
</g>
</svg>
