<?xml version="1.0" standalone="no"?>

<svg width="800px" height="800px"  viewBox="0 0 24 24" fill="none" xmlns="http://www.w3.org/2000/svg">
<!DOCTYPE svg PUBLIC "-//W3C//DTD SVG 20010904//EN"
 "http://www.w3.org/TR/2001/REC-SVG-20010904/DTD/svg10.dtd">
<svg version="1.0" xmlns="http://www.w3.org/2000/svg"
 width="150.000000pt" height="150.000000pt" viewBox="0 0 150.000000 150.000000"
 preserveAspectRatio="xMidYMid meet">

<g transform="translate(0.000000,150.000000) scale(0.066667,-0.066667)"
fill="#000000" stroke="none">
<path d="M696 2002 c-2 -4 -69 -178 -149 -387 -80 -209 -148 -388 -152 -398
-7 -16 -2 -18 50 -15 l58 3 37 105 37 105 170 3 170 2 41 -107 40 -108 56 -3
c31 -2 56 -1 56 1 0 5 -272 718 -294 771 -14 35 -17 36 -65 36 -27 0 -52 -3
-55 -8z m123 -305 c34 -93 61 -173 61 -178 0 -5 -58 -9 -130 -9 -97 0 -130 3
-130 13 0 6 27 87 60 180 33 92 60 175 61 185 1 23 5 12 78 -191z"/>
<path d="M1230 1604 l0 -407 158 6 c173 6 237 20 314 69 127 80 186 205 176
375 -8 142 -79 248 -209 312 -75 37 -163 50 -326 51 l-113 0 0 -406z m390 277
c91 -47 136 -110 150 -213 19 -129 -27 -255 -114 -315 -62 -43 -100 -53 -223
-60 l-103 -6 0 313 0 312 123 -4 c103 -3 129 -7 167 -27z"/>
<path d="M380 985 l0 -105 530 0 530 0 0 105 0 105 -530 0 -530 0 0 -105z"/>
<path d="M90 624 c0 -202 7 -237 62 -299 74 -84 20 -80 978 -80 753 0 849 2
880 16 56 26 101 70 126 124 22 47 24 62 24 233 l0 182 -80 0 -80 0 0 -175 c0
-173 0 -176 -25 -200 l-24 -25 -826 0 -826 0 -24 25 c-25 24 -25 27 -25 200
l0 175 -80 0 -80 0 0 -176z"/>
<path d="M380 655 l0 -105 425 0 425 0 0 105 0 105 -425 0 -425 0 0 -105z"/>
</g>
</svg>

