<?xml version="1.0" encoding="UTF-8" standalone="no"?>
<svg
   version="1.1"
   id="Layer_1"
   x="0px"
   y="0px"
   viewBox="0 0 122.9 118.33"
   xml:space="preserve"
   sodipodi:docname="0ea55c27aaf047cc69a28104db6f1882.svg"
   width="122.9"
   height="118.33"
   xmlns:inkscape="http://www.inkscape.org/namespaces/inkscape"
   xmlns:sodipodi="http://sodipodi.sourceforge.net/DTD/sodipodi-0.dtd"
   xmlns="http://www.w3.org/2000/svg"
   xmlns:svg="http://www.w3.org/2000/svg"><defs
     id="defs11" /><sodipodi:namedview
     id="namedview9"
     pagecolor="#ffffff"
     bordercolor="#666666"
     borderopacity="1.0"
     inkscape:pageshadow="2"
     inkscape:pageopacity="0.0"
     inkscape:pagecheckerboard="0" /><style
     type="text/css"
     id="style2">.st0{fill-rule:evenodd;clip-rule:evenodd;}</style><g
     id="g6"
     transform="translate(0.02)"><path
       class="st0"
       d="m 7.51,0 h 107.85 c 2.05,0 3.93,0.85 5.29,2.21 v 0 l 0.01,0.01 0.01,0.01 0.01,0.01 c 1.36,1.37 2.2,3.24 2.2,5.29 v 103.28 c 0,2.07 -0.85,3.95 -2.21,5.31 -1.36,1.36 -3.24,2.21 -5.31,2.21 H 7.51 c -2.05,0 -3.93,-0.84 -5.3,-2.21 L 2.2,116.11 2.19,116.1 2.18,116.09 c -1.36,-1.37 -2.2,-3.24 -2.2,-5.29 V 7.51 C 0,5.44 0.84,3.56 2.2,2.2 2.28,2.12 2.36,2.04 2.45,1.97 3.79,0.75 5.57,0 7.51,0 Z m 10.08,34.77 h 85.94 V 68.42 H 17.59 Z m 26.49,23.86 h -6.43 l -0.92,3.46 h -5.8 l 6.92,-20.98 h 6.21 l 6.89,20.98 H 45 Z m -1.2,-4.54 -2.01,-7.54 -2.01,7.54 z M 53.72,41.11 h 8.44 c 1.66,0 3.01,0.26 4.03,0.77 1.02,0.52 1.87,1.26 2.54,2.22 0.67,0.97 1.15,2.09 1.45,3.36 0.3,1.28 0.45,2.63 0.45,4.06 0,2.24 -0.22,3.98 -0.67,5.21 -0.44,1.24 -1.06,2.27 -1.86,3.11 -0.8,0.84 -1.65,1.39 -2.56,1.67 -1.24,0.38 -2.37,0.57 -3.38,0.57 h -8.44 z m 5.67,4.74 v 11.46 h 1.39 c 1.19,0 2.04,-0.15 2.54,-0.45 0.5,-0.3 0.89,-0.83 1.18,-1.57 0.29,-0.75 0.43,-1.96 0.43,-3.64 0,-2.22 -0.32,-3.74 -0.95,-4.56 -0.64,-0.82 -1.69,-1.23 -3.17,-1.23 h -1.42 z m 14.14,9.3 5.39,-0.39 c 0.12,1 0.35,1.76 0.71,2.28 0.59,0.84 1.42,1.27 2.51,1.27 0.81,0 1.43,-0.21 1.87,-0.65 0.44,-0.43 0.66,-0.94 0.66,-1.51 0,-0.54 -0.2,-1.03 -0.62,-1.46 -0.41,-0.43 -1.38,-0.83 -2.9,-1.22 -2.49,-0.63 -4.26,-1.48 -5.32,-2.54 -1.07,-1.05 -1.6,-2.4 -1.6,-4.04 0,-1.07 0.27,-2.09 0.82,-3.05 0.55,-0.96 1.37,-1.71 2.47,-2.26 1.1,-0.55 2.6,-0.82 4.52,-0.82 2.35,0 4.14,0.5 5.37,1.5 1.23,1 1.96,2.58 2.2,4.76 l -5.34,0.36 c -0.14,-0.95 -0.44,-1.65 -0.89,-2.08 -0.46,-0.43 -1.09,-0.65 -1.89,-0.65 -0.66,0 -1.16,0.16 -1.49,0.48 -0.33,0.32 -0.5,0.71 -0.5,1.17 0,0.33 0.14,0.63 0.41,0.9 0.26,0.28 0.89,0.53 1.89,0.77 2.48,0.61 4.26,1.23 5.32,1.86 1.07,0.63 1.86,1.4 2.34,2.32 0.49,0.92 0.73,1.96 0.73,3.11 0,1.34 -0.33,2.58 -0.98,3.72 -0.65,1.13 -1.56,2 -2.73,2.58 -1.17,0.59 -2.64,0.88 -4.42,0.88 -3.12,0 -5.29,-0.69 -6.49,-2.06 C 74.37,59 73.69,57.26 73.53,55.15 Z M 18.14,84.39 c -1.29,0 -2.34,-1.05 -2.34,-2.34 0,-1.29 1.05,-2.34 2.34,-2.34 h 35.74 c 1.29,0 2.34,1.05 2.34,2.34 0,1.29 -1.05,2.34 -2.34,2.34 z m 45.99,0 c -1.3,0 -2.35,-1.05 -2.35,-2.35 0,-1.3 1.05,-2.35 2.35,-2.35 h 38.55 c 1.3,0 2.35,1.05 2.35,2.35 0,1.3 -1.05,2.35 -2.35,2.35 z m 0,13.6 c -1.3,0 -2.35,-1.05 -2.35,-2.35 0,-1.3 1.05,-2.35 2.35,-2.35 h 38.55 c 1.3,0 2.35,1.05 2.35,2.35 0,1.3 -1.05,2.35 -2.35,2.35 z M 19.27,97.98 c -1.29,0 -2.34,-1.05 -2.34,-2.34 0,-1.29 1.05,-2.34 2.34,-2.34 h 35.74 c 1.29,0 2.34,1.05 2.34,2.34 0,1.29 -1.05,2.34 -2.34,2.34 z M 50.12,9.7 c 2.7,0 4.88,2.19 4.88,4.88 0,2.69 -2.19,4.88 -4.88,4.88 -2.69,0 -4.88,-2.19 -4.88,-4.88 0,-2.69 2.19,-4.88 4.88,-4.88 z m -34.13,0 c 2.7,0 4.88,2.19 4.88,4.88 0,2.69 -2.19,4.88 -4.88,4.88 -2.7,0 -4.88,-2.19 -4.88,-4.88 0,-2.69 2.18,-4.88 4.88,-4.88 z m 17.06,0 c 2.7,0 4.88,2.19 4.88,4.88 0,2.69 -2.19,4.88 -4.88,4.88 -2.7,0 -4.88,-2.19 -4.88,-4.88 0,-2.69 2.19,-4.88 4.88,-4.88 z m 83.04,17.23 c -0.24,0.04 -0.48,0.06 -0.72,0.06 H 7.51 c -0.25,0 -0.49,-0.02 -0.72,-0.06 v 83.86 c 0,0.2 0.08,0.38 0.2,0.51 v 0 L 7,111.31 c 0.13,0.13 0.3,0.2 0.51,0.2 h 107.85 c 0.19,0 0.37,-0.08 0.51,-0.22 0.13,-0.13 0.22,-0.31 0.22,-0.51 z"
       id="path4" /></g></svg>
