<?xml version="1.0" standalone="no"?>
<!DOCTYPE svg PUBLIC "-//W3C//DTD SVG 20010904//EN"
 "http://www.w3.org/TR/2001/REC-SVG-20010904/DTD/svg10.dtd">
<svg version="1.0" xmlns="http://www.w3.org/2000/svg"
 width="119.000000pt" height="129.000000pt" viewBox="0 0 119.000000 129.000000"
 preserveAspectRatio="xMidYMid meet">

<g transform="translate(0.000000,129.000000) scale(0.100000,-0.100000)"
fill="#000000" stroke="none">
<path d="M195 1136 c-102 -44 -125 -178 -46 -258 l38 -38 -13 -52 c-65 -248
104 -507 356 -547 259 -42 500 171 500 439 0 31 -6 79 -14 108 l-13 52 38 38
c65 66 65 158 0 223 -61 61 -151 65 -215 9 l-34 -30 -48 22 c-71 33 -227 32
-298 0 l-49 -22 -26 24 c-48 46 -116 58 -176 32z m153 -40 c23 -22 25 -28 12
-36 -10 -6 -20 -4 -31 6 -26 23 -82 28 -116 11 -57 -30 -68 -114 -21 -164 15
-16 18 -27 12 -33 -27 -27 -76 33 -81 99 -5 55 19 100 69 132 47 29 120 22
156 -15z m650 14 c41 -25 72 -76 72 -118 0 -66 -55 -141 -82 -114 -8 8 -3 21
16 42 63 75 0 185 -96 166 -17 -3 -39 -13 -48 -21 -10 -9 -21 -11 -30 -5 -12
7 -11 12 5 31 39 43 110 51 163 19z m-287 -20 c169 -52 283 -197 296 -376 7
-86 -8 -158 -49 -236 -54 -102 -176 -197 -274 -213 -36 -5 -34 -4 14 13 229
83 150 324 -105 324 -59 0 -84 -5 -127 -26 -63 -31 -83 -52 -101 -102 -27 -78
25 -159 126 -196 49 -17 50 -18 15 -13 -98 16 -220 111 -274 213 -41 78 -56
150 -49 236 20 272 277 454 528 376z m17 -532 c174 -90 85 -278 -133 -278 -72
0 -117 13 -163 47 -106 79 -71 203 71 249 62 20 167 12 225 -18z m-105 -305
c-13 -2 -35 -2 -50 0 -16 2 -5 4 22 4 28 0 40 -2 28 -4z"/>
<path d="M456 787 c-22 -16 -26 -78 -7 -101 28 -34 81 -2 81 49 0 25 -27 65
-44 65 -7 0 -20 -6 -30 -13z m54 -37 c0 -13 -7 -20 -20 -20 -13 0 -20 7 -20
20 0 13 7 20 20 20 13 0 20 -7 20 -20z"/>
<path d="M676 778 c-9 -12 -16 -32 -16 -43 0 -29 28 -65 49 -65 44 0 64 89 26
116 -26 20 -41 17 -59 -8z m64 -28 c0 -13 -7 -20 -20 -20 -13 0 -20 7 -20 20
0 13 7 20 20 20 13 0 20 -7 20 -20z"/>
<path d="M543 574 c-12 -3 -27 -12 -34 -20 -10 -12 -7 -20 16 -44 16 -16 37
-32 47 -36 15 -4 18 -16 18 -70 0 -72 -5 -76 -59 -43 -36 22 -52 18 -35 -9 35
-56 163 -56 198 0 17 27 1 31 -35 9 -54 -33 -59 -29 -59 43 0 54 3 66 18 70
10 4 31 20 47 36 26 27 27 32 14 45 -16 16 -98 27 -136 19z"/>
<path d="M0 45 l0 -45 595 0 595 0 0 45 0 45 -595 0 -595 0 0 -45z m180 4 c0
-15 -18 -19 -23 -6 -3 8 1 14 9 14 8 0 14 -4 14 -8z m40 -10 c0 -5 -6 -9 -13
-9 -8 0 -14 6 -14 14 0 8 6 12 14 9 7 -3 13 -9 13 -14z m24 6 c3 -8 1 -15 -4
-15 -6 0 -10 7 -10 15 0 8 2 15 4 15 2 0 6 -7 10 -15z m846 -5 c0 -5 -2 -10
-4 -10 -3 0 -8 5 -11 10 -3 6 -1 10 4 10 6 0 11 -4 11 -10z"/>
</g>
</svg>
